<svg id="Layer_1" data-name="Layer 1" xmlns="http://www.w3.org/2000/svg" viewBox="0 0 472.17 472.17"><title>logo-type</title><path d="M256,149.86A106.14,106.14,0,1,0,362.14,256,106.26,106.26,0,0,0,256,149.86Z" transform="translate(-19.91 -19.91)" style="fill:#fff"/><ellipse cx="389.97" cy="82.21" rx="47.54" ry="47.54" style="fill:#fff"/><path d="M256,492.09C125.82,492.09,19.91,386.18,19.91,256S125.82,19.91,256,19.91a235.21,235.21,0,0,1,82,14.67,18.2,18.2,0,0,1-12.65,34.14A199,199,0,0,0,256,56.33C145.9,56.33,56.33,145.9,56.33,256S145.9,455.67,256,455.67,455.67,366.1,455.67,256a199,199,0,0,0-12.4-69.38A18.2,18.2,0,1,1,477.42,174a235.24,235.24,0,0,1,14.67,82C492.09,386.18,386.18,492.09,256,492.09Z" transform="translate(-19.91 -19.91)" style="fill:#fff"/></svg>